<svg xmlns="http://www.w3.org/2000/svg" viewBox="0 0 430 426" width="430" height="426" font-family="Inter, Arial, sans-serif">
<rect width="430" height="426" fill="#ffffff"/>
<rect x="26" y="350" width="50" height="50" fill="#b58863"/>
<rect x="76" y="350" width="50" height="50" fill="#f0d9b5"/>
<rect x="126" y="350" width="50" height="50" fill="#b58863"/>
<rect x="176" y="350" width="50" height="50" fill="#f0d9b5"/>
<rect x="226" y="350" width="50" height="50" fill="#b58863"/>
<rect x="276" y="350" width="50" height="50" fill="#f0d9b5"/>
<rect x="326" y="350" width="50" height="50" fill="#b58863"/>
<rect x="376" y="350" width="50" height="50" fill="#f0d9b5"/>
<rect x="26" y="300" width="50" height="50" fill="#f0d9b5"/>
<rect x="76" y="300" width="50" height="50" fill="#b58863"/>
<rect x="126" y="300" width="50" height="50" fill="#f0d9b5"/>
<rect x="176" y="300" width="50" height="50" fill="#b58863"/>
<rect x="226" y="300" width="50" height="50" fill="#f0d9b5"/>
<rect x="276" y="300" width="50" height="50" fill="#b58863"/>
<rect x="326" y="300" width="50" height="50" fill="#f0d9b5"/>
<rect x="376" y="300" width="50" height="50" fill="#b58863"/>
<rect x="26" y="250" width="50" height="50" fill="#b58863"/>
<rect x="76" y="250" width="50" height="50" fill="#f0d9b5"/>
<rect x="126" y="250" width="50" height="50" fill="#b58863"/>
<rect x="176" y="250" width="50" height="50" fill="#f0d9b5"/>
<rect x="226" y="250" width="50" height="50" fill="#b58863"/>
<rect x="276" y="250" width="50" height="50" fill="#f0d9b5"/>
<rect x="326" y="250" width="50" height="50" fill="#b58863"/>
<rect x="376" y="250" width="50" height="50" fill="#f0d9b5"/>
<rect x="26" y="200" width="50" height="50" fill="#f0d9b5"/>
<rect x="76" y="200" width="50" height="50" fill="#b58863"/>
<rect x="126" y="200" width="50" height="50" fill="#f0d9b5"/>
<rect x="176" y="200" width="50" height="50" fill="#b58863"/>
<rect x="226" y="200" width="50" height="50" fill="#f0d9b5"/>
<rect x="276" y="200" width="50" height="50" fill="#b58863"/>
<rect x="326" y="200" width="50" height="50" fill="#f0d9b5"/>
<rect x="376" y="200" width="50" height="50" fill="#b58863"/>
<rect x="26" y="150" width="50" height="50" fill="#b58863"/>
<rect x="76" y="150" width="50" height="50" fill="#f0d9b5"/>
<rect x="126" y="150" width="50" height="50" fill="#b58863"/>
<rect x="176" y="150" width="50" height="50" fill="#f0d9b5"/>
<rect x="226" y="150" width="50" height="50" fill="#b58863"/>
<rect x="276" y="150" width="50" height="50" fill="#f0d9b5"/>
<rect x="326" y="150" width="50" height="50" fill="#b58863"/>
<rect x="376" y="150" width="50" height="50" fill="#f0d9b5"/>
<rect x="26" y="100" width="50" height="50" fill="#f0d9b5"/>
<rect x="76" y="100" width="50" height="50" fill="#b58863"/>
<rect x="126" y="100" width="50" height="50" fill="#f0d9b5"/>
<rect x="176" y="100" width="50" height="50" fill="#b58863"/>
<rect x="226" y="100" width="50" height="50" fill="#f0d9b5"/>
<rect x="276" y="100" width="50" height="50" fill="#b58863"/>
<rect x="326" y="100" width="50" height="50" fill="#f0d9b5"/>
<rect x="376" y="100" width="50" height="50" fill="#b58863"/>
<rect x="26" y="50" width="50" height="50" fill="#b58863"/>
<rect x="76" y="50" width="50" height="50" fill="#f0d9b5"/>
<rect x="126" y="50" width="50" height="50" fill="#b58863"/>
<rect x="176" y="50" width="50" height="50" fill="#f0d9b5"/>
<rect x="226" y="50" width="50" height="50" fill="#b58863"/>
<rect x="276" y="50" width="50" height="50" fill="#f0d9b5"/>
<rect x="326" y="50" width="50" height="50" fill="#b58863"/>
<rect x="376" y="50" width="50" height="50" fill="#f0d9b5"/>
<rect x="26" y="0" width="50" height="50" fill="#f0d9b5"/>
<rect x="76" y="0" width="50" height="50" fill="#b58863"/>
<rect x="126" y="0" width="50" height="50" fill="#f0d9b5"/>
<rect x="176" y="0" width="50" height="50" fill="#b58863"/>
<rect x="226" y="0" width="50" height="50" fill="#f0d9b5"/>
<rect x="276" y="0" width="50" height="50" fill="#b58863"/>
<rect x="326" y="0" width="50" height="50" fill="#f0d9b5"/>
<rect x="376" y="0" width="50" height="50" fill="#b58863"/>
<rect x="26" y="0" width="400" height="400" fill="none" stroke="#5a4030" stroke-width="2"/>
<text x="13.0" y="381.0" text-anchor="middle" font-size="16" font-weight="700" fill="#001e32">1</text>
<text x="13.0" y="331.0" text-anchor="middle" font-size="16" font-weight="700" fill="#001e32">2</text>
<text x="13.0" y="281.0" text-anchor="middle" font-size="16" font-weight="700" fill="#001e32">3</text>
<text x="13.0" y="231.0" text-anchor="middle" font-size="16" font-weight="700" fill="#001e32">4</text>
<text x="13.0" y="181.0" text-anchor="middle" font-size="16" font-weight="700" fill="#001e32">5</text>
<text x="13.0" y="131.0" text-anchor="middle" font-size="16" font-weight="700" fill="#001e32">6</text>
<text x="13.0" y="81.0" text-anchor="middle" font-size="16" font-weight="700" fill="#001e32">7</text>
<text x="13.0" y="31.0" text-anchor="middle" font-size="16" font-weight="700" fill="#001e32">8</text>
<text x="51.0" y="419" text-anchor="middle" font-size="16" font-weight="700" fill="#001e32">a</text>
<text x="101.0" y="419" text-anchor="middle" font-size="16" font-weight="700" fill="#001e32">b</text>
<text x="151.0" y="419" text-anchor="middle" font-size="16" font-weight="700" fill="#001e32">c</text>
<text x="201.0" y="419" text-anchor="middle" font-size="16" font-weight="700" fill="#001e32">d</text>
<text x="251.0" y="419" text-anchor="middle" font-size="16" font-weight="700" fill="#001e32">e</text>
<text x="301.0" y="419" text-anchor="middle" font-size="16" font-weight="700" fill="#001e32">f</text>
<text x="351.0" y="419" text-anchor="middle" font-size="16" font-weight="700" fill="#001e32">g</text>
<text x="401.0" y="419" text-anchor="middle" font-size="16" font-weight="700" fill="#001e32">h</text>

<rect x="226" y="200" width="50" height="50" fill="#de9e05" fill-opacity="0.55"/>
<rect x="276" y="200" width="50" height="50" fill="#de9e05" fill-opacity="0.55"/>
<rect x="326" y="200" width="50" height="50" fill="#de9e05" fill-opacity="0.55"/>
<rect x="376" y="200" width="50" height="50" fill="#de9e05" fill-opacity="0.55"/>
<rect x="126" y="200" width="50" height="50" fill="#de9e05" fill-opacity="0.55"/>
<rect x="76" y="200" width="50" height="50" fill="#de9e05" fill-opacity="0.55"/>
<rect x="26" y="200" width="50" height="50" fill="#de9e05" fill-opacity="0.55"/>
<rect x="176" y="150" width="50" height="50" fill="#de9e05" fill-opacity="0.55"/>
<rect x="176" y="100" width="50" height="50" fill="#de9e05" fill-opacity="0.55"/>
<rect x="176" y="50" width="50" height="50" fill="#de9e05" fill-opacity="0.55"/>
<rect x="176" y="0" width="50" height="50" fill="#de9e05" fill-opacity="0.55"/>
<rect x="176" y="250" width="50" height="50" fill="#de9e05" fill-opacity="0.55"/>
<rect x="176" y="300" width="50" height="50" fill="#de9e05" fill-opacity="0.55"/>
<rect x="176" y="350" width="50" height="50" fill="#de9e05" fill-opacity="0.55"/>
<rect x="226" y="150" width="50" height="50" fill="#de9e05" fill-opacity="0.55"/>
<rect x="276" y="100" width="50" height="50" fill="#de9e05" fill-opacity="0.55"/>
<rect x="326" y="50" width="50" height="50" fill="#de9e05" fill-opacity="0.55"/>
<rect x="376" y="0" width="50" height="50" fill="#de9e05" fill-opacity="0.55"/>
<rect x="226" y="250" width="50" height="50" fill="#de9e05" fill-opacity="0.55"/>
<rect x="276" y="300" width="50" height="50" fill="#de9e05" fill-opacity="0.55"/>
<rect x="326" y="350" width="50" height="50" fill="#de9e05" fill-opacity="0.55"/>
<rect x="126" y="150" width="50" height="50" fill="#de9e05" fill-opacity="0.55"/>
<rect x="76" y="100" width="50" height="50" fill="#de9e05" fill-opacity="0.55"/>
<rect x="26" y="50" width="50" height="50" fill="#de9e05" fill-opacity="0.55"/>
<rect x="126" y="250" width="50" height="50" fill="#de9e05" fill-opacity="0.55"/>
<rect x="76" y="300" width="50" height="50" fill="#de9e05" fill-opacity="0.55"/>
<rect x="26" y="350" width="50" height="50" fill="#de9e05" fill-opacity="0.55"/>
<text x="201.0" y="240.0" text-anchor="middle" font-size="44" font-family="DejaVu Sans, Segoe UI Symbol, Noto Sans Symbols2, serif" fill="#000" fill-opacity="1">♕</text>
</svg>
