<svg xmlns="http://www.w3.org/2000/svg" viewBox="0 0 404 404" width="404" height="404" font-family="Inter, Arial, sans-serif">
<rect width="404" height="404" fill="#ffffff"/>
<rect x="2" y="2" width="50" height="50" fill="#f0d9b5"/>
<rect x="52" y="2" width="50" height="50" fill="#b58863"/>
<rect x="102" y="2" width="50" height="50" fill="#f0d9b5"/>
<rect x="152" y="2" width="50" height="50" fill="#b58863"/>
<rect x="202" y="2" width="50" height="50" fill="#f0d9b5"/>
<rect x="252" y="2" width="50" height="50" fill="#b58863"/>
<rect x="302" y="2" width="50" height="50" fill="#f0d9b5"/>
<rect x="352" y="2" width="50" height="50" fill="#b58863"/>
<rect x="2" y="52" width="50" height="50" fill="#b58863"/>
<rect x="52" y="52" width="50" height="50" fill="#f0d9b5"/>
<rect x="102" y="52" width="50" height="50" fill="#b58863"/>
<rect x="152" y="52" width="50" height="50" fill="#f0d9b5"/>
<rect x="202" y="52" width="50" height="50" fill="#b58863"/>
<rect x="252" y="52" width="50" height="50" fill="#f0d9b5"/>
<rect x="302" y="52" width="50" height="50" fill="#b58863"/>
<rect x="352" y="52" width="50" height="50" fill="#f0d9b5"/>
<rect x="2" y="102" width="50" height="50" fill="#f0d9b5"/>
<rect x="52" y="102" width="50" height="50" fill="#b58863"/>
<rect x="102" y="102" width="50" height="50" fill="#f0d9b5"/>
<rect x="152" y="102" width="50" height="50" fill="#b58863"/>
<rect x="202" y="102" width="50" height="50" fill="#f0d9b5"/>
<rect x="252" y="102" width="50" height="50" fill="#b58863"/>
<rect x="302" y="102" width="50" height="50" fill="#f0d9b5"/>
<rect x="352" y="102" width="50" height="50" fill="#b58863"/>
<rect x="2" y="152" width="50" height="50" fill="#b58863"/>
<rect x="52" y="152" width="50" height="50" fill="#f0d9b5"/>
<rect x="102" y="152" width="50" height="50" fill="#b58863"/>
<rect x="152" y="152" width="50" height="50" fill="#f0d9b5"/>
<rect x="202" y="152" width="50" height="50" fill="#b58863"/>
<rect x="252" y="152" width="50" height="50" fill="#f0d9b5"/>
<rect x="302" y="152" width="50" height="50" fill="#b58863"/>
<rect x="352" y="152" width="50" height="50" fill="#f0d9b5"/>
<rect x="2" y="202" width="50" height="50" fill="#f0d9b5"/>
<rect x="52" y="202" width="50" height="50" fill="#b58863"/>
<rect x="102" y="202" width="50" height="50" fill="#f0d9b5"/>
<rect x="152" y="202" width="50" height="50" fill="#b58863"/>
<rect x="202" y="202" width="50" height="50" fill="#f0d9b5"/>
<rect x="252" y="202" width="50" height="50" fill="#b58863"/>
<rect x="302" y="202" width="50" height="50" fill="#f0d9b5"/>
<rect x="352" y="202" width="50" height="50" fill="#b58863"/>
<rect x="2" y="252" width="50" height="50" fill="#b58863"/>
<rect x="52" y="252" width="50" height="50" fill="#f0d9b5"/>
<rect x="102" y="252" width="50" height="50" fill="#b58863"/>
<rect x="152" y="252" width="50" height="50" fill="#f0d9b5"/>
<rect x="202" y="252" width="50" height="50" fill="#b58863"/>
<rect x="252" y="252" width="50" height="50" fill="#f0d9b5"/>
<rect x="302" y="252" width="50" height="50" fill="#b58863"/>
<rect x="352" y="252" width="50" height="50" fill="#f0d9b5"/>
<rect x="2" y="302" width="50" height="50" fill="#f0d9b5"/>
<rect x="52" y="302" width="50" height="50" fill="#b58863"/>
<rect x="102" y="302" width="50" height="50" fill="#f0d9b5"/>
<rect x="152" y="302" width="50" height="50" fill="#b58863"/>
<rect x="202" y="302" width="50" height="50" fill="#f0d9b5"/>
<rect x="252" y="302" width="50" height="50" fill="#b58863"/>
<rect x="302" y="302" width="50" height="50" fill="#f0d9b5"/>
<rect x="352" y="302" width="50" height="50" fill="#b58863"/>
<rect x="2" y="352" width="50" height="50" fill="#b58863"/>
<rect x="52" y="352" width="50" height="50" fill="#f0d9b5"/>
<rect x="102" y="352" width="50" height="50" fill="#b58863"/>
<rect x="152" y="352" width="50" height="50" fill="#f0d9b5"/>
<rect x="202" y="352" width="50" height="50" fill="#b58863"/>
<rect x="252" y="352" width="50" height="50" fill="#f0d9b5"/>
<rect x="302" y="352" width="50" height="50" fill="#b58863"/>
<rect x="352" y="352" width="50" height="50" fill="#f0d9b5"/>
<rect x="2" y="2" width="400" height="400" fill="none" stroke="#5a4030" stroke-width="2"/>

<text x="27.0" y="383.0" text-anchor="middle" font-size="17" font-weight="700" fill="#001e32">h8</text>
<text x="227.0" y="233.0" text-anchor="middle" font-size="17" font-weight="700" fill="#001e32">d5</text>
<text x="377.0" y="33.0" text-anchor="middle" font-size="17" font-weight="700" fill="#001e32">a1</text>
<text x="27.0" y="35.0" text-anchor="middle" font-size="22" font-weight="800" fill="#c0392b" fill-opacity="0.85">?</text>
<text x="27.0" y="85.0" text-anchor="middle" font-size="22" font-weight="800" fill="#c0392b" fill-opacity="0.85">?</text>
<text x="27.0" y="135.0" text-anchor="middle" font-size="22" font-weight="800" fill="#c0392b" fill-opacity="0.85">?</text>
<text x="27.0" y="185.0" text-anchor="middle" font-size="22" font-weight="800" fill="#c0392b" fill-opacity="0.85">?</text>
<text x="27.0" y="235.0" text-anchor="middle" font-size="22" font-weight="800" fill="#c0392b" fill-opacity="0.85">?</text>
<text x="27.0" y="285.0" text-anchor="middle" font-size="22" font-weight="800" fill="#c0392b" fill-opacity="0.85">?</text>
<text x="27.0" y="335.0" text-anchor="middle" font-size="22" font-weight="800" fill="#c0392b" fill-opacity="0.85">?</text>
<text x="77.0" y="35.0" text-anchor="middle" font-size="22" font-weight="800" fill="#c0392b" fill-opacity="0.85">?</text>
<text x="77.0" y="85.0" text-anchor="middle" font-size="22" font-weight="800" fill="#c0392b" fill-opacity="0.85">?</text>
<text x="77.0" y="135.0" text-anchor="middle" font-size="22" font-weight="800" fill="#c0392b" fill-opacity="0.85">?</text>
<text x="77.0" y="185.0" text-anchor="middle" font-size="22" font-weight="800" fill="#c0392b" fill-opacity="0.85">?</text>
<text x="77.0" y="235.0" text-anchor="middle" font-size="22" font-weight="800" fill="#c0392b" fill-opacity="0.85">?</text>
<text x="77.0" y="285.0" text-anchor="middle" font-size="22" font-weight="800" fill="#c0392b" fill-opacity="0.85">?</text>
<text x="77.0" y="335.0" text-anchor="middle" font-size="22" font-weight="800" fill="#c0392b" fill-opacity="0.85">?</text>
<text x="77.0" y="385.0" text-anchor="middle" font-size="22" font-weight="800" fill="#c0392b" fill-opacity="0.85">?</text>
<text x="127.0" y="35.0" text-anchor="middle" font-size="22" font-weight="800" fill="#c0392b" fill-opacity="0.85">?</text>
<text x="127.0" y="85.0" text-anchor="middle" font-size="22" font-weight="800" fill="#c0392b" fill-opacity="0.85">?</text>
<text x="127.0" y="135.0" text-anchor="middle" font-size="22" font-weight="800" fill="#c0392b" fill-opacity="0.85">?</text>
<text x="127.0" y="185.0" text-anchor="middle" font-size="22" font-weight="800" fill="#c0392b" fill-opacity="0.85">?</text>
<text x="127.0" y="235.0" text-anchor="middle" font-size="22" font-weight="800" fill="#c0392b" fill-opacity="0.85">?</text>
<text x="127.0" y="285.0" text-anchor="middle" font-size="22" font-weight="800" fill="#c0392b" fill-opacity="0.85">?</text>
<text x="127.0" y="335.0" text-anchor="middle" font-size="22" font-weight="800" fill="#c0392b" fill-opacity="0.85">?</text>
<text x="127.0" y="385.0" text-anchor="middle" font-size="22" font-weight="800" fill="#c0392b" fill-opacity="0.85">?</text>
<text x="177.0" y="35.0" text-anchor="middle" font-size="22" font-weight="800" fill="#c0392b" fill-opacity="0.85">?</text>
<text x="177.0" y="85.0" text-anchor="middle" font-size="22" font-weight="800" fill="#c0392b" fill-opacity="0.85">?</text>
<text x="177.0" y="135.0" text-anchor="middle" font-size="22" font-weight="800" fill="#c0392b" fill-opacity="0.85">?</text>
<text x="177.0" y="185.0" text-anchor="middle" font-size="22" font-weight="800" fill="#c0392b" fill-opacity="0.85">?</text>
<text x="177.0" y="235.0" text-anchor="middle" font-size="22" font-weight="800" fill="#c0392b" fill-opacity="0.85">?</text>
<text x="177.0" y="285.0" text-anchor="middle" font-size="22" font-weight="800" fill="#c0392b" fill-opacity="0.85">?</text>
<text x="177.0" y="335.0" text-anchor="middle" font-size="22" font-weight="800" fill="#c0392b" fill-opacity="0.85">?</text>
<text x="177.0" y="385.0" text-anchor="middle" font-size="22" font-weight="800" fill="#c0392b" fill-opacity="0.85">?</text>
<text x="227.0" y="35.0" text-anchor="middle" font-size="22" font-weight="800" fill="#c0392b" fill-opacity="0.85">?</text>
<text x="227.0" y="85.0" text-anchor="middle" font-size="22" font-weight="800" fill="#c0392b" fill-opacity="0.85">?</text>
<text x="227.0" y="135.0" text-anchor="middle" font-size="22" font-weight="800" fill="#c0392b" fill-opacity="0.85">?</text>
<text x="227.0" y="185.0" text-anchor="middle" font-size="22" font-weight="800" fill="#c0392b" fill-opacity="0.85">?</text>
<text x="227.0" y="285.0" text-anchor="middle" font-size="22" font-weight="800" fill="#c0392b" fill-opacity="0.85">?</text>
<text x="227.0" y="335.0" text-anchor="middle" font-size="22" font-weight="800" fill="#c0392b" fill-opacity="0.85">?</text>
<text x="227.0" y="385.0" text-anchor="middle" font-size="22" font-weight="800" fill="#c0392b" fill-opacity="0.85">?</text>
<text x="277.0" y="35.0" text-anchor="middle" font-size="22" font-weight="800" fill="#c0392b" fill-opacity="0.85">?</text>
<text x="277.0" y="85.0" text-anchor="middle" font-size="22" font-weight="800" fill="#c0392b" fill-opacity="0.85">?</text>
<text x="277.0" y="135.0" text-anchor="middle" font-size="22" font-weight="800" fill="#c0392b" fill-opacity="0.85">?</text>
<text x="277.0" y="185.0" text-anchor="middle" font-size="22" font-weight="800" fill="#c0392b" fill-opacity="0.85">?</text>
<text x="277.0" y="235.0" text-anchor="middle" font-size="22" font-weight="800" fill="#c0392b" fill-opacity="0.85">?</text>
<text x="277.0" y="285.0" text-anchor="middle" font-size="22" font-weight="800" fill="#c0392b" fill-opacity="0.85">?</text>
<text x="277.0" y="335.0" text-anchor="middle" font-size="22" font-weight="800" fill="#c0392b" fill-opacity="0.85">?</text>
<text x="277.0" y="385.0" text-anchor="middle" font-size="22" font-weight="800" fill="#c0392b" fill-opacity="0.85">?</text>
<text x="327.0" y="35.0" text-anchor="middle" font-size="22" font-weight="800" fill="#c0392b" fill-opacity="0.85">?</text>
<text x="327.0" y="85.0" text-anchor="middle" font-size="22" font-weight="800" fill="#c0392b" fill-opacity="0.85">?</text>
<text x="327.0" y="135.0" text-anchor="middle" font-size="22" font-weight="800" fill="#c0392b" fill-opacity="0.85">?</text>
<text x="327.0" y="185.0" text-anchor="middle" font-size="22" font-weight="800" fill="#c0392b" fill-opacity="0.85">?</text>
<text x="327.0" y="235.0" text-anchor="middle" font-size="22" font-weight="800" fill="#c0392b" fill-opacity="0.85">?</text>
<text x="327.0" y="285.0" text-anchor="middle" font-size="22" font-weight="800" fill="#c0392b" fill-opacity="0.85">?</text>
<text x="327.0" y="335.0" text-anchor="middle" font-size="22" font-weight="800" fill="#c0392b" fill-opacity="0.85">?</text>
<text x="327.0" y="385.0" text-anchor="middle" font-size="22" font-weight="800" fill="#c0392b" fill-opacity="0.85">?</text>
<text x="377.0" y="85.0" text-anchor="middle" font-size="22" font-weight="800" fill="#c0392b" fill-opacity="0.85">?</text>
<text x="377.0" y="135.0" text-anchor="middle" font-size="22" font-weight="800" fill="#c0392b" fill-opacity="0.85">?</text>
<text x="377.0" y="185.0" text-anchor="middle" font-size="22" font-weight="800" fill="#c0392b" fill-opacity="0.85">?</text>
<text x="377.0" y="235.0" text-anchor="middle" font-size="22" font-weight="800" fill="#c0392b" fill-opacity="0.85">?</text>
<text x="377.0" y="285.0" text-anchor="middle" font-size="22" font-weight="800" fill="#c0392b" fill-opacity="0.85">?</text>
<text x="377.0" y="335.0" text-anchor="middle" font-size="22" font-weight="800" fill="#c0392b" fill-opacity="0.85">?</text>
<text x="377.0" y="385.0" text-anchor="middle" font-size="22" font-weight="800" fill="#c0392b" fill-opacity="0.85">?</text>
</svg>
